<?xml version="1.0" encoding="iso-8859-1"?>
<!-- Generator: Adobe Illustrator 19.0.0, SVG Export Plug-In . SVG Version: 6.00 Build 0)  -->
<svg version="1.1" id="Layer_1" xmlns="http://www.w3.org/2000/svg" xmlns:xlink="http://www.w3.org/1999/xlink" x="0px" y="0px"
	 viewBox="0 0 512 512" style="enable-background:new 0 0 512 512;" xml:space="preserve">
<rect x="209.352" y="188.106" style="fill:#CEE8FA;" width="93.301" height="80.914"/>
<g>
	<path style="fill:#2D527C;" d="M302.651,283.64h-93.301c-8.08,0-14.632-6.551-14.632-14.632v-80.909
		c0-8.081,6.552-14.632,14.632-14.632h93.301c8.08,0,14.632,6.551,14.632,14.632v80.909
		C317.282,277.09,310.732,283.64,302.651,283.64z M223.983,254.377h64.037v-51.646h-64.037L223.983,254.377L223.983,254.377z"/>
	<path style="fill:#2D527C;" d="M344.189,283.64H167.813c-8.08,0-14.632-6.551-14.632-14.632c0-8.081,6.552-14.632,14.632-14.632
		h176.376c8.08,0,14.632,6.551,14.632,14.632C358.82,277.09,352.268,283.64,344.189,283.64z"/>
</g>
<rect x="190.404" y="269.005" style="fill:#CEE8FA;" width="131.203" height="228.358"/>
<g>
	<path style="fill:#2D527C;" d="M321.599,512H190.401c-8.08,0-14.632-6.551-14.632-14.632v-228.36
		c0-8.081,6.552-14.632,14.632-14.632h131.197c8.08,0,14.632,6.551,14.632,14.632v228.36C336.23,505.449,329.68,512,321.599,512z
		 M205.033,482.736h101.934V283.64H205.033V482.736z"/>
	<path style="fill:#2D527C;" d="M452.798,512H321.599c-8.08,0-14.632-6.551-14.632-14.632V346.662
		c0-8.081,6.552-14.632,14.632-14.632h106.689c21.583,0,39.142,17.558,39.142,39.14v50.845c0,8.081-6.552,14.632-14.632,14.632
		c-8.08,0-14.632-6.551-14.632-14.632V371.17c0-5.446-4.431-9.876-9.878-9.876H336.23v121.442h116.567
		c8.08,0,14.632,6.551,14.632,14.632S460.879,512,452.798,512z"/>
	<path style="fill:#2D527C;" d="M190.401,512H59.202c-8.08,0-14.632-6.551-14.632-14.632v-82.304
		c0-21.582,17.558-39.14,39.141-39.14h106.689c8.08,0,14.632,6.551,14.632,14.632v106.812C205.033,505.449,198.482,512,190.401,512z
		 M73.834,482.736h101.935v-77.548H83.712c-5.447,0-9.878,4.431-9.878,9.876C73.834,415.064,73.834,482.736,73.834,482.736z"/>
	<path style="fill:#2D527C;" d="M256,187.092c-2.527,0-5.052-0.654-7.316-1.961l-51.372-29.66
		c-21.169-12.222-34.319-34.999-34.319-59.443V14.632C162.993,6.551,169.545,0,177.625,0h156.752c8.08,0,14.632,6.551,14.632,14.632
		s-6.552,14.632-14.632,14.632h-142.12v66.765c0,14.023,7.543,27.089,19.687,34.101L256,155.565l44.056-25.436
		c12.144-7.012,19.687-20.078,19.687-34.101V75.974c0-8.081,6.552-14.632,14.632-14.632s14.632,6.551,14.632,14.632v20.054
		c0,24.444-13.15,47.221-34.319,59.443l-51.372,29.66C261.054,186.438,258.527,187.092,256,187.092z"/>
	<path style="fill:#2D527C;" d="M174.652,90.606h-29.467c-8.08,0-14.632-6.551-14.632-14.632s6.552-14.632,14.632-14.632h29.467
		c8.08,0,14.632,6.551,14.632,14.632S182.731,90.606,174.652,90.606z"/>
	<path style="fill:#2D527C;" d="M366.817,90.606h-32.395c-8.08,0-14.632-6.551-14.632-14.632s6.552-14.632,14.632-14.632h32.395
		c8.08,0,14.632,6.551,14.632,14.632S374.896,90.606,366.817,90.606z"/>
</g>
<g>
</g>
<g>
</g>
<g>
</g>
<g>
</g>
<g>
</g>
<g>
</g>
<g>
</g>
<g>
</g>
<g>
</g>
<g>
</g>
<g>
</g>
<g>
</g>
<g>
</g>
<g>
</g>
<g>
</g>
</svg>
