<?xml version="1.0" encoding="utf-8"?>
<!DOCTYPE svg PUBLIC "-//W3C//DTD SVG 20010904//EN" "http://www.w3.org/TR/2001/REC-SVG-20010904/DTD/svg10.dtd">
<svg version="1.0" xmlns="http://www.w3.org/2000/svg" width="256px" height="256px" viewBox="0 0 256 256" preserveAspectRatio="xMidYMid meet">
 <g fill="#000000">
  <path d="M110.6 243.4 c-1.9 -1.9 -1.9 -1.2 -0.2 -10.3 l1.4 -7.3 -5.9 -5.7 c-3.2 -3.2 -5.9 -6.5 -5.9 -7.4 0 -2.6 3.9 -4.4 11.1 -5.2 l6.7 -0.6 3.8 -7.7 c3.3 -6.5 4.3 -7.7 6.4 -7.7 2.1 0 3.1 1.2 6.4 7.6 l4 7.6 7.3 1.1 c12.2 1.7 12.9 3.6 4.4 12.5 l-5.8 6.2 1.3 7.4 c0.7 4 1 7.9 0.7 8.7 -1.1 2.9 -4.3 2.5 -11.3 -1.3 l-7 -3.8 -7.3 3.8 c-3.9 2 -7.5 3.7 -7.9 3.7 -0.4 0 -1.4 -0.7 -2.2 -1.6z m22 -12.6 l4.6 2.3 -0.7 -5.2 c-0.7 -4.9 -0.6 -5.2 3.1 -9 l3.8 -3.9 -3.1 0 c-5.4 0 -8.2 -1.7 -9.9 -6 -0.9 -2.2 -1.9 -4 -2.3 -4 -0.4 0 -1.7 2 -2.9 4.5 -2 4.2 -2.4 4.5 -7.2 5.1 l-5.1 0.7 3.6 3.7 c3.6 3.7 3.7 4 3 8.9 l-0.7 5.2 4.6 -2.3 4.6 -2.2 4.6 2.2z"/>
  <path d="M38.9 230.7 c-2.4 -1.3 -5.7 -4.3 -7.4 -6.6 -2.6 -3.7 -3 -5.1 -3 -10.9 0 -8 2.5 -12.9 8.8 -17 l4 -2.7 29.6 -0.5 c31.9 -0.5 32.3 -0.6 35.5 -6.1 2 -3.4 2 -7.2 0 -11.4 -2.8 -6 -5.3 -6.5 -32.1 -6.5 -17.3 0 -24.2 -0.3 -25.1 -1.2 -0.9 -0.9 -1.2 -6.9 -1.2 -20.9 l0 -19.7 19.5 -18.8 19.5 -18.8 -17.3 -17.5 c-10.3 -10.5 -18.1 -19.2 -19.2 -21.6 -4.9 -10.6 -2.2 -19.9 9 -30.4 11.3 -10.5 20.4 -11.5 32 -3.6 2.8 1.9 12 10.2 20.5 18.4 l15.5 14.9 16.5 -16.2 c18.7 -18.4 24.1 -21.9 34 -22 7 0 10.1 1.7 18.4 10 7.6 7.8 10.1 13 9.4 20.2 -0.8 8.8 -4.2 13.6 -21.2 31.1 l-16.1 16.4 19.8 19.1 19.7 19.1 0 19.6 c0 14.8 -0.3 19.9 -1.3 20.7 -0.8 0.7 -10.5 1.2 -26.5 1.4 l-25.2 0.3 -3.2 3.3 c-2.8 2.8 -3.3 3.9 -3.3 8.2 0 4.3 0.5 5.4 3.3 8.2 l3.2 3.3 29.8 0.5 c29.1 0.5 29.8 0.5 33.5 2.9 2.1 1.3 5 4.2 6.5 6.4 2.3 3.4 2.7 5.2 2.7 10.8 0 5.9 -0.4 7.3 -3 11 -1.6 2.3 -5 5.3 -7.4 6.6 -4.4 2.3 -4.7 2.3 -33.9 2.1 -26.8 -0.3 -29.6 -0.5 -30.6 -2 -0.8 -1.3 -0.8 -2.3 0 -3.5 1 -1.6 3.9 -1.8 30.5 -2.3 32.4 -0.6 32.5 -0.6 35.5 -6.9 2.2 -4.6 1.2 -9.7 -2.6 -13.6 l-3 -3 -29.8 -0.5 c-29.1 -0.5 -29.8 -0.5 -33.5 -2.9 -7.6 -4.7 -11.1 -14 -8.8 -22.9 1.6 -5.6 7.6 -11.7 13.2 -13.2 l4.2 -1.2 -15.1 -15.1 -15.2 -15.2 -15.2 15.2 -15.1 15.1 4.2 1.2 c5.6 1.5 11.6 7.6 13.2 13.2 2.4 9 -0.8 17.6 -8.4 22.6 l-4 2.7 -29.9 0.5 -29.8 0.5 -3 3 c-3.8 3.9 -4.8 9 -2.6 13.6 3 6.3 3.1 6.3 35.5 6.9 26.6 0.5 29.5 0.7 30.5 2.3 0.8 1.2 0.8 2.2 0 3.5 -1 1.5 -3.8 1.7 -30.6 2 -29.2 0.2 -29.5 0.2 -33.9 -2.1z m50.3 -72.4 c2 -1.9 2.8 -3.7 2.8 -6 0 -3.3 0 -3.3 -4.8 -3.3 -2.6 0 -5.3 -0.5 -6 -1.2 -0.7 -0.7 -1.2 -3.4 -1.2 -6 l0 -4.8 -4.8 0 c-2.6 0 -5.3 -0.5 -6 -1.2 -0.7 -0.7 -1.2 -3.4 -1.2 -6 0 -4.5 -0.2 -4.8 -2.6 -4.8 -1.4 0 -4.1 1.2 -6 2.6 l-3.4 2.6 0 15.4 0 15.4 15.2 0 c15.1 0 15.2 0 18 -2.7z m110.8 -12.3 l0 -15 -3.2 -3 c-2 -1.7 -4.4 -3 -6 -3 -2.7 0 -2.8 0.2 -2.8 4.8 0 2.6 -0.5 5.3 -1.2 6 -0.7 0.7 -3.4 1.2 -6 1.2 l-4.8 0 0 4.8 c0 2.6 -0.5 5.3 -1.2 6 -0.7 0.7 -3.4 1.2 -6 1.2 -4.7 0 -4.8 0 -4.8 3.2 0 2.1 0.9 4.1 2.7 6 l2.7 2.8 15.3 0 15.3 0 0 -15z m-55 -44.4 l37.2 -37.9 -13.8 -13.8 c-7.7 -7.7 -14.2 -13.9 -14.7 -13.9 -0.4 0 -19.2 18.1 -41.8 40.2 -40.8 40 -41 40.2 -38.5 41.5 2.3 1.2 2.6 2 2.6 6.3 l0 5 4.1 0 c6.5 0 7.9 1.3 7.9 7 l0 5 4.8 0 c5.2 0 7.2 1.2 7.2 4.4 0 1.7 0.6 1.4 3.9 -1.9 2.1 -2.2 20.6 -21.1 41.1 -41.9z m11 42.9 c0 -2.1 3.2 -3.5 7.9 -3.5 l4.1 0 0 -5 c0 -5.7 1.4 -7 7.9 -7 l4.1 0 0 -5 c0 -4.3 0.3 -5.1 2.6 -6.3 l2.6 -1.4 -11.4 -10.6 -11.3 -10.6 -8.3 8.2 c-4.6 4.5 -11.1 11.3 -14.4 15 l-6.1 6.8 10.4 10.5 c5.7 5.7 10.7 10.4 11.1 10.4 0.5 0 0.8 -0.7 0.8 -1.5z m-35.5 -89.2 c0 -0.6 -4.5 -5.4 -10.1 -10.6 l-10.1 -9.6 -13.6 13.7 c-7.5 7.6 -13.7 14.2 -13.7 14.7 0 0.5 4.4 5.3 9.7 10.7 l9.7 9.7 14.1 -13.7 c7.7 -7.5 14 -14.2 14 -14.9z m-29.2 -29 c-5.9 -5.1 -11.8 -7.6 -15.8 -6.9 -4.2 0.8 -12.1 6.9 -15.8 12.3 -5.3 7.7 -4.6 12.7 3.1 22.1 l3.5 4.4 14.4 -14.4 14.3 -14.3 -3.7 -3.2z m105.1 20.3 c3.3 -7 1.4 -12.7 -6.9 -20.5 -6.2 -5.9 -9.6 -7.4 -13.9 -6.5 -4 0.8 -10.5 4.5 -13.6 7.8 l-2.4 2.7 13.9 14 14 14 3.6 -4 c2 -2.3 4.4 -5.6 5.3 -7.5z"/>
 </g>
</svg>