<?xml version="1.0" encoding="utf-8"?>
<!DOCTYPE svg PUBLIC "-//W3C//DTD SVG 20010904//EN" "http://www.w3.org/TR/2001/REC-SVG-20010904/DTD/svg10.dtd">
<svg version="1.0" xmlns="http://www.w3.org/2000/svg" width="533px" height="533px" viewBox="0 0 533 533" preserveAspectRatio="xMidYMid meet">
 <g fill="#ffffff">
  <path d="M0 266.5 l0 -266.5 450 0 450 0 0 266.5 0 266.5 -450 0 -450 0 0 -266.5z m488.5 222.6 c50.2 -8.7 93.2 -31.3 128.1 -67.3 33.5 -34.6 53.7 -75.5 61.1 -123.8 2.4 -15.9 2.4 -47.4 -0.1 -62.5 -7.9 -49 -27.8 -89.3 -61 -123.4 -35.5 -36.4 -78.6 -58.9 -129.6 -67.6 -12.8 -2.2 -48.4 -3.1 -62.1 -1.6 -15.8 1.8 -33.9 5.8 -48.9 10.7 -15.6 5.2 -39.5 16.6 -52.5 25.1 -18.6 12.2 -40.7 32.2 -54 48.8 -36.2 45.1 -53.9 103.7 -48.4 160.1 4.9 50.8 26.7 97.7 62.3 134.3 38.8 39.7 86.2 62.7 143.6 69.5 1.9 0.2 13.9 0.3 26.5 0.1 17.8 -0.2 25.7 -0.7 35 -2.4z"/>
  <path d="M434 487.4 c-1.9 -0.2 -7.8 -0.9 -13 -1.5 -25.6 -2.8 -54.6 -12.1 -79 -25.1 -54.3 -29 -95.7 -81.3 -110.4 -139.6 -5.4 -21.2 -6 -27.1 -6 -54.2 0 -27.1 0.6 -33 6 -54.2 20.2 -80.3 87.4 -143.9 170.9 -161.7 16 -3.4 27.6 -4.5 47.5 -4.5 19.9 0 31.5 1.1 47.5 4.5 83.5 17.8 150.7 81.4 170.9 161.7 5.4 21.2 6 27.1 6 54.2 0 27.1 -0.6 33 -6 54.2 -21.5 85.4 -95.9 151.3 -185.5 164.3 -10.2 1.5 -41.9 2.7 -48.9 1.9z m27.3 -88 c5.1 -1.7 10.3 -6.2 11.8 -10.1 0.5 -1.3 1.7 -6.5 2.8 -11.6 3.6 -17.9 10.6 -31.5 21.6 -42.3 11.6 -11.4 30.6 -20.4 43.1 -20.4 10.2 0 19.2 -4.4 23.5 -11.3 4.7 -7.9 4.5 -17.3 -1.2 -50.5 -1.6 -9.6 -3.4 -22.5 -3.9 -28.8 -1.1 -13.4 -2.9 -18.3 -8.8 -23.6 -10.7 -9.6 -26.6 -10.2 -37 -1.2 -4.9 4.1 -7 7.8 -8 13.7 -0.6 3.5 -1.2 4.2 -3.7 4.8 -7.3 1.9 -31.3 3.9 -45.8 3.9 -12.3 0 -16.5 0.3 -18.8 1.5 -9 4.7 -9.2 19.3 -0.3 25.2 5 3.2 36.4 2.7 61.9 -1.1 5 -0.8 9.1 -1.3 9.2 -1.2 0.6 0.5 5.3 31.5 5.3 34.8 0 2.1 -0.5 3.8 -1.1 3.8 -0.6 0 -4.9 1.8 -9.5 3.9 -31.9 15 -53.5 44.2 -61.3 82.8 -1 4.7 -2 8 -2.2 7.2 -0.2 -0.8 -0.3 -23.3 -0.1 -50.1 l0.2 -48.8 13.5 0 13.5 0 0 -12 0 -12 -49.5 0 c-47 0 -49.5 -0.1 -49.5 -1.8 0 -1 0.6 -2.4 1.3 -3.2 1 -1.2 0.9 -1.2 -0.5 -0.1 -1 0.7 -1.8 2.2 -1.8 3.2 0 1.8 -1.3 1.9 -27.5 1.9 l-27.5 0 0 12 0 12 7.5 0 7.5 0 0 60 0 60 56.6 0 56.6 0 -0.2 -3.7 c-0.3 -5.8 -0.1 -6 2 -2.5 2.2 3.5 8.7 7.1 13.1 7.2 1.4 0 4.7 -0.7 7.2 -1.6z m109.9 -6.1 c2.2 -2 2.3 -5.1 0.1 -7.5 -1.3 -1.4 -3.1 -1.8 -9.5 -1.8 l-7.8 0 0 -28.5 c0 -15.7 0.3 -28.5 0.8 -28.5 0.4 0 3.4 0.7 6.7 1.5 12 2.9 18 1.4 21.5 -5.5 2.6 -5.1 2.6 -11.7 -0.2 -32.8 -1.9 -14.4 -2.2 -21.6 -2.3 -51.2 l0 -34.5 -2.7 -0.3 c-2.2 -0.3 -2.9 0.2 -3.4 2.3 -0.3 1.4 -0.7 17.3 -0.7 35.3 -0.1 28.5 0.1 34.8 2.1 49.4 4.2 31.6 3.2 33.8 -13.1 30.3 -14.2 -3.1 -33.3 -0.3 -51.2 7.3 -8.1 3.5 -9.8 5.3 -7.2 7.9 1.5 1.5 2.1 1.6 5 0.5 6.9 -2.8 23.4 -8 27 -8.6 l3.7 -0.7 0 28.1 0 28 -8.4 0 c-6.4 0 -8.8 0.4 -10 1.6 -2.1 2 -2 5.3 0.1 7.6 1.5 1.6 3.6 1.8 24.6 1.8 20 0 23.3 -0.2 24.9 -1.7z m-216.2 -140.8 c0 -1 -1.6 -1.5 -5.7 -1.7 l-5.8 -0.3 -0.1 -11.5 c-0.1 -9.2 0 -10.3 0.6 -5.7 0.4 3.2 0.9 6 1.2 6.2 0.2 0.3 2.8 0.2 5.6 -0.2 l5.2 -0.6 0 -4.1 c0 -2.3 -0.9 -16 -2 -30.6 -1.1 -14.6 -2 -27.1 -2 -27.7 0 -0.9 -1.9 -1.3 -6.1 -1.3 l-6.1 0 0.6 6.8 c0.3 3.7 1 13.7 1.6 22.2 0.6 8.5 1.2 17.2 1.4 19.3 0.3 3.1 0.1 3.7 -1.5 3.7 -1.8 0 -1.9 0.9 -1.9 12.4 0 8.8 0.4 12.7 1.3 13.4 1.2 1 11.3 2.1 13 1.4 0.4 -0.2 0.7 -0.9 0.7 -1.7z m48 -1.6 c0 -0.5 -0.4 -0.8 -0.9 -0.5 -0.5 0.3 -1.1 -0.3 -1.4 -1.4 -0.5 -1.9 -1.4 -2 -14.2 -2 -10.2 0 -14 0.3 -15 1.4 -1 1 -1.1 1.6 -0.2 2.5 1.5 1.5 31.7 1.6 31.7 0z m31 -1.7 c0 -2 -3.1 -5.2 -6.7 -7.1 -2.4 -1.2 -12.2 -1.5 -13.9 -0.3 -0.6 0.4 -1.3 1.5 -1.7 2.5 -0.4 0.9 -1.7 1.7 -3 1.7 -1.3 0 -3.2 0.7 -4.3 1.6 -1 0.8 -1.3 1.3 -0.6 0.9 0.7 -0.4 1.2 0 1.2 0.9 0 1.4 2 1.6 14.5 1.6 13.4 0 14.5 -0.1 14.5 -1.8z m93 -61.4 c15.7 -6.7 21.3 -26.2 11.7 -40.5 -12.2 -18.1 -39.1 -15.8 -48.3 4.2 -7.3 15.7 2.3 34.5 19.5 38.1 6.6 1.3 10.9 0.9 17.1 -1.8z"/>
 </g>
</svg>